ply
format ascii 1.0
comment VCGLIB generated
element vertex 318
property float x
property float y
property float z
element face 624
property list uchar int vertex_indices
end_header
0.002999246 0.01089721 0.04464477 
0.000359715 0.01089966 0.04796832 
0.002338767 0.010885 0.04695528 
0.00234574 0.01088672 0.04317915 
0.001025557 0.01089477 0.04214996 
0.001999616 0.01089692 0.04408597 
0.000826939 0.01089149 0.04701918 
0.002051293 0.01086962 0.0458244 
0.000984775 0.01088815 0.04306632 
-0.001819312 0.009437561 0.04387903 
-1.12074e-05 0.00943017 0.04711711 
-0.000697705 0.0094316 0.04301643 
-0.001464784 0.009429216 0.0465517 
-0.00208646 0.009431064 0.04526871 
-0.000155725 0.009388387 0.04323405 
0.001297712 0.009390771 0.04378831 
0.000156458 0.009388387 0.04676586 
0.001741111 0.009388566 0.04558634 
-0.002886593 0.009435176 0.04399472 
-0.001784682 0.009434103 0.0424965 
0.00052098 0.009434282 0.04803037 
-0.001791715 0.009433507 0.04755115 
1.48399e-05 0.009437739 0.04194247 
-0.002975225 0.009436786 0.04570305 
-0.008930683 0.009314417 0.03609037 
0.008931338 0.009313642 0.03609037 
-0.000860488 0.001913011 0.04356497 
-0.001740396 0.009388566 0.04441362 
-0.00152558 0.001912534 0.04591751 
-0.001296997 0.009390771 0.0462116 
-0.000970155 0.010885 0.04216766 
0.004843115 -1.70612e-05 0.05371719 
0.008756995 -2.97773e-05 0.04727178 
0.008758902 -2.87572e-05 0.04272794 
-0.002268254 -3.64761e-05 0.05374616 
-0.008709371 -1.03085e-05 0.04993945 
-0.00875771 -2.8976e-05 0.0472719 
-0.002273738 -3.68374e-05 0.03624957 
-0.002243995 -7.46945e-05 0.0427556 
-0.008758783 -3.04484e-05 0.04272389 
0.002263069 -8.37643e-05 0.04726266 
0.00226897 -3.64764e-05 0.05374616 
3.65234e-07 0.001558899 0.05380403 
3.6521e-07 0.001488626 0.04499995 
3.65614e-07 0.001561164 0.03619641 
0.002270221 -3.43831e-05 0.0362488 
0.002248227 -7.64219e-05 0.04275208 
-0.002262294 -8.37643e-05 0.04726266 
-0.005691945 1.10341e-05 0.05360394 
0.00686866 0.009352147 0.05310285 
-0.007860779 0.009355306 0.05219143 
0.003445267 0.009386718 0.04705679 
0.008785963 0.009348154 0.0505712 
0.003923535 0.009389936 0.04573357 
-0.000730475 0.009391903 0.04108011 
0.003038406 0.009433627 0.04465281 
0.000734002 0.009389936 0.04107677 
0.002057075 0.009386718 0.04155498 
0.004730045 0.009351372 0.05389988 
-0.000733049 0.009390354 0.04892301 
-0.00205636 0.009386718 0.04844492 
0.007075071 -1.88821e-05 0.05276924 
0.008674919 -6.99964e-06 0.05031853 
0.007492721 0.009395003 0.0442506 
0.007331073 0.001441657 0.04408031 
0.004115462 0.00143361 0.04404103 
0.000913617 0.001440465 0.0409246 
0.002675354 0.001427888 0.04171341 
-0.000916098 0.001442193 0.03767275 
-0.004073202 0.001442134 0.04408985 
-0.003944575 0.009400427 0.04425376 
-0.002707123 0.009383678 0.04193902 
-0.003045201 0.001419723 0.04195654 
-0.007492482 0.00939387 0.03750175 
-0.000909494 0.001442074 0.04092669 
-0.004972159 0.009392738 0.0524379 
-0.007140517 0.001431167 0.05044227 
-0.007258474 0.009387791 0.05068916 
-0.007491827 0.009394824 0.04574936 
-0.004114806 0.001433432 0.04595905 
-0.000913103 0.001440107 0.04907548 
-0.002675294 0.001426517 0.04828691 
-0.000916344 0.001443028 0.05232822 
-0.005090415 0.001432299 0.05222845 
0.007365286 0.009393692 0.05032676 
0.004924833 0.001437306 0.05226349 
0.00534445 0.009385824 0.0523557 
0.000915562 0.001443564 0.05232697 
0.000749809 0.009395062 0.05249238 
0.000959386 0.001433491 0.04911512 
0.004075884 0.001440107 0.04591345 
0.003287315 0.001426517 0.04767566 
0.007309973 0.001435518 0.0495814 
0.006608247 0.00141263 0.05116909 
-0.001967191 0.0108897 0.04407691 
-0.002455234 0.0108962 0.04326856 
-0.000723478 0.01089477 0.04287755 
0.002154886 0.009418427 0.04456418 
0.000721602 0.009433567 0.04298967 
0.001448452 0.009429216 0.04656761 
0.000861216 0.00191313 0.04643499 
0.001526296 0.001912474 0.0440824 
-0.007818162 -3.97311e-05 0.05191779 
-0.008771955 2.75426e-05 0.03626441 
-0.008893072 0.009342074 0.04989963 
0.008762598 1.08415e-05 0.03626585 
-0.005339801 0.009355187 0.05381947 
-0.007331967 0.00144273 0.04407978 
-0.007496535 0.009394824 0.04424685 
-0.007332861 0.001443088 0.03767186 
-0.000755759 0.009394407 0.03750163 
0.00254625 0.009436607 0.04679846 
0.002077639 0.009434342 0.04267549 
0.007333219 0.001442193 0.03767275 
0.007498383 0.00939387 0.03750687 
0.000916392 0.001442492 0.03767257 
0.003923356 0.009390354 0.04426658 
0.000754132 0.009395062 0.03750258 
0.003375649 0.00939083 0.04281467 
-0.007332205 0.001443505 0.04591983 
-0.003922641 0.009390354 0.04573339 
-0.000753554 0.009394705 0.05249726 
-0.003374874 0.00939083 0.0471853 
0.007332324 0.001442849 0.04592007 
0.000734002 0.009389936 0.04892319 
0.007497489 0.009394824 0.04575371 
0.002185642 0.00939083 0.0483753 
-0.002153158 0.01088654 0.0454204 
-0.001070141 0.01088356 0.04698097 
-0.003009378 0.01089417 0.04527872 
-0.00187093 0.01090669 0.04741126 
-0.008804023 0.001558899 0.04499995 
0.008809328 0.001564621 0.04499995 
-0.000900074 0.009423434 0.04836726 
-0.003461062 0.009425997 0.04545509 
0.003367424 0.009420156 0.04579621 
0.002354204 0.009420096 0.04753577 
0.001209616 0.009421825 0.04820466 
-0.002568781 0.009414196 0.04729557 
-0.01040536 0.01838725 0.003964126 
0.01030278 0.01967525 0.003999948 
-0.01030677 0.0197041 0.003999948 
-0.01032835 0.01741087 0.006311535 
0.01033771 0.01741051 0.006348371 
-0.01034963 0.002563178 0.001799941 
-0.01046431 0.008072018 0.00174117 
-0.01036626 0.002524316 0.000133332 
-0.01033806 0.008028566 0.003838419 
-0.01049768 0.01066809 0.003808438 
-0.01037496 0.01157689 0.01777273 
-0.01037907 0.01279222 0.01885205 
-0.01040232 0.01741403 0.004769504 
-0.01033318 0.01621478 0.01882749 
-0.0105009 0.01703566 0.01771438 
-0.01046431 0.02075433 0.00174117 
-0.01025623 0.02079778 0.003920257 
-0.01039052 0.02630412 0.000163633 
-0.01034963 0.02626317 0.001799941 
-0.005033195 0.005965054 0.003874957 
0.006783962 0.007870256 0.003922104 
0.01033878 0.008028566 0.003838419 
-0.006688237 0.007825791 0.003912925 
-0.004874587 0.002588212 0.003874957 
0.004875361 0.002538204 0.003824949 
0.004882395 0.006314396 0.00399816 
0.01035034 0.002563178 0.001799941 
0.004861891 0.002482414 0.001761496 
0.0103783 0.002535223 0.000152542 
-0.004861116 0.002482414 0.001761496 
0.0103892 0.02627986 0.000133333 
0.004900753 0.02634549 0.001760601 
0.01035034 0.02626317 0.0018 
-0.004838049 0.0262978 0.003838419 
0.004838824 0.02625167 0.003884613 
-0.004913091 0.02631509 0.001778841 
-0.004740357 0.02308672 0.003991544 
0.004736721 0.02311271 0.003989934 
0.01039779 0.0114066 0.004751801 
-0.01040315 0.01144498 0.004798948 
0.01038271 0.01261192 0.0187999 
0.0102685 0.02076315 0.00393176 
0.01045852 0.02080255 0.001745045 
0.01046502 0.008072018 0.00174117 
0.0104981 0.01065367 0.00379908 
0.01040905 0.01161694 0.01771855 
0.01049864 0.01723229 0.004730284 
0.01032787 0.01605618 0.01887345 
0.0104016 0.01821219 0.003997564 
0.01050156 0.01703572 0.01771444 
0.007072865 0.02100592 0.001899957 
0.005206525 0.0225414 0.001899957 
0.005030691 0.02334862 0.003700613 
0.005556464 0.02213406 0.003700196 
0.00697416 0.02102053 0.003698945 
0.00515145 0.006138801 0.001899957 
0.006992816 0.007812917 0.001899957 
0.00512129 0.005962073 0.003693938 
-0.00520581 0.0225414 0.001899957 
-0.007104516 0.02099138 0.001899957 
-0.006963312 0.02102977 0.003688812 
-0.005555689 0.02213406 0.003700196 
-0.005031466 0.02334022 0.003702998 
-0.005051195 0.005644857 0.001899957 
-0.005777955 0.006963193 0.001899957 
-0.007155239 0.007843613 0.001899957 
0.0102126 0.01028144 0.004017531 
-0.01020997 0.01025789 0.004015088 
0.01020628 0.01744186 0.005109727 
0.01019817 0.01733398 0.0177704 
-0.01019358 0.01735031 0.01768088 
-0.006566226 0.02081871 0.003997445 
0.006602585 0.02079534 0.003997147 
-0.010293 0.02316558 0.004009008 
-0.01038885 0.02522027 0.01918762 
0.01040047 0.02525341 0.01903659 
-0.008802294 0.01565176 0.0359255 
0.008803725 0.01566779 0.03590935 
-0.00874871 0.01441204 0.0360046 
0.008746623 0.01441162 0.0360043 
-0.005330324 0.01430171 0.05381 
-0.007801711 0.01423847 0.05229121 
0.006546616 0.01429051 0.05324614 
0.004800438 0.01433104 0.05383157 
0.008537709 0.01441401 0.05053359 
-0.008656799 0.01441329 0.04983228 
-0.007084131 0.009504258 0.05282139 
-0.008779346 0.009461343 0.05011796 
-0.005467712 0.009490966 0.05374723 
-0.008745193 0.009413957 0.03600448 
-0.003062069 0.009426355 0.04349088 
0.005491077 0.009412288 0.05355769 
0.007737815 0.009533464 0.05224508 
0.008802413 0.00950849 0.05020254 
0.008748948 0.009413778 0.03600472 
-0.009015202 0.008043587 0.03574204 
0.009009778 0.008124589 0.03584498 
-0.01019251 0.01739948 0.01925081 
0.008962452 0.008020699 0.03557926 
0.01018828 0.01739251 0.01925343 
-0.01036179 0.02530467 0.006144404 
0.01038175 0.02526181 0.006118535 
0.01029372 0.02316558 0.004009008 
-0.01047909 0.01767802 0.01932358 
-0.009055435 0.015468 0.03570801 
-0.009049296 0.009711623 0.03573459 
-0.009055495 0.01410454 0.03572821 
0.008973121 0.0141133 0.04968112 
0.009049952 0.009715855 0.03573578 
0.00905615 0.015468 0.03570801 
0.00905627 0.01410877 0.03572702 
0.01047974 0.01767796 0.01932418 
-0.008394658 0.009712696 0.0514611 
-0.008945405 0.01410996 0.04996031 
0.008197128 0.01411491 0.05185294 
0.005532205 0.009717047 0.05385756 
-0.00195378 0.009417772 0.04215568 
0.003167867 0.009425044 0.04377222 
-2.00269e-06 0.01280522 0.04499375 
0.000144479 0.00943315 0.04151052 
0.001943349 0.009422361 0.04219353 
-0.009823203 0.01750212 0.01110798 
-0.008970022 0.01753544 0.00949794 
-0.008382201 0.02041316 0.008978068 
-0.006987035 0.02041316 0.01564162 
-0.007580995 0.01771301 0.01545852 
-0.007902503 0.01771277 0.008742332 
-0.008936882 0.02041321 0.01448625 
-0.006165742 0.01771926 0.008206784 
-0.005999624 0.02041316 0.008207798 
-0.009010076 0.01771265 0.01427406 
-0.009712457 0.01771759 0.01274335 
-0.009828627 0.02041321 0.01161444 
-0.008163809 0.01741361 0.01548886 
-0.002160131 0.01771426 0.01179015 
-0.001917064 0.0174154 0.01287972 
-0.009805202 0.01741385 0.01357632 
-0.002761185 0.01771289 0.01393586 
-0.003453075 0.01741337 0.01519817 
-0.003756344 0.01771312 0.01503348 
-0.005418896 0.01771914 0.01575213 
-0.005659103 0.01741391 0.01611226 
-0.002533555 0.01741403 0.009761214 
-0.007441639 0.01741355 0.008155763 
-0.004799664 0.01741427 0.008044362 
-0.00424081 0.01770812 0.008646845 
-0.002989172 0.01771265 0.009725868 
-0.003062367 0.02041316 0.01448625 
-0.003617048 0.02041316 0.008978068 
-0.00524491 0.02041316 0.01571643 
-0.002170562 0.02041321 0.01161444 
0.002471983 0.01753765 0.01027405 
0.003617763 0.02041316 0.008978068 
0.005012929 0.02041316 0.01564162 
0.004418909 0.01771301 0.01545852 
0.004097461 0.01771277 0.008742332 
0.003063082 0.02041316 0.01448625 
0.005834221 0.01771926 0.008206784 
0.006000339 0.02041316 0.008207798 
0.002989888 0.01771265 0.01427406 
0.002158105 0.01760274 0.01248186 
0.002171337 0.02041321 0.01161444 
0.002778768 0.01741474 0.01464384 
0.009839832 0.01771426 0.01179015 
0.009967148 0.01741391 0.01086372 
0.009844422 0.01741361 0.01344197 
0.009238719 0.01771289 0.01393586 
0.008363068 0.01759368 0.01505017 
0.006581008 0.01771914 0.01575213 
0.00593394 0.01741504 0.01617604 
0.006598711 0.01741325 0.00796616 
0.008496105 0.01741367 0.008740007 
0.004167318 0.01741486 0.008277237 
0.007759153 0.01770812 0.008646845 
0.009010791 0.01771265 0.009725868 
0.008937597 0.02041316 0.01448625 
0.008382916 0.02041316 0.008978068 
0.006755053 0.02041316 0.01571643 
0.009829342 0.02041321 0.01161444 
3 26 27 28 
3 27 29 28 
3 29 16 28 
3 28 16 100 
3 14 27 26 
3 13 127 12 
3 127 128 12 
3 98 96 11 
3 12 128 10 
3 11 96 9 
3 96 94 9 
3 9 94 13 
3 94 127 13 
3 18 23 129 
3 18 129 95 
3 21 1 130 
3 21 20 1 
3 19 18 95 
3 19 95 30 
3 22 19 30 
3 22 30 4 
3 23 21 130 
3 23 130 129 
3 40 31 41 
3 40 61 31 
3 62 61 40 
3 32 62 40 
3 105 33 46 
3 105 46 45 
3 47 34 48 
3 47 48 102 
3 47 102 35 
3 47 35 36 
3 37 38 39 
3 37 39 103 
3 132 62 32 
3 132 52 62 
3 25 52 132 
3 33 25 132 
3 105 25 33 
3 131 36 35 
3 104 131 35 
3 24 39 131 
3 24 103 39 
3 24 131 104 
3 40 41 42 
3 43 40 42 
3 44 45 46 
3 44 46 43 
3 47 43 42 
3 47 42 34 
3 44 43 38 
3 37 44 38 
3 24 37 103 
3 44 37 24 
3 25 45 44 
3 25 105 45 
3 25 44 24 
3 42 58 106 
3 42 106 48 
3 42 48 34 
3 31 42 41 
3 31 58 42 
3 18 71 70 
3 18 19 71 
3 52 63 125 
3 126 111 20 
3 106 77 50 
3 114 25 117 
3 106 75 77 
3 63 25 114 
3 52 25 63 
3 25 24 117 
3 117 24 110 
3 73 24 108 
3 108 24 104 
3 50 77 104 
3 126 51 111 
3 49 84 86 
3 77 78 104 
3 106 121 75 
3 49 52 84 
3 22 71 19 
3 51 53 111 
3 22 54 71 
3 111 53 55 
3 106 88 121 
3 78 108 104 
3 53 116 55 
3 22 56 54 
3 112 57 22 
3 22 57 56 
3 116 118 55 
3 106 58 88 
3 88 59 121 
3 78 120 108 
3 55 118 112 
3 60 21 122 
3 112 118 57 
3 73 110 24 
3 53 125 116 
3 21 23 122 
3 52 125 84 
3 59 21 60 
3 122 23 120 
3 58 86 88 
3 59 20 21 
3 56 117 54 
3 88 124 59 
3 54 117 110 
3 120 70 108 
3 120 23 70 
3 124 20 59 
3 125 63 116 
3 23 18 70 
3 49 86 58 
3 126 20 124 
3 52 49 61 
3 52 61 62 
3 49 31 61 
3 49 58 31 
3 50 102 48 
3 106 50 48 
3 104 35 102 
3 50 104 102 
3 63 113 64 
3 114 113 63 
3 116 64 65 
3 63 64 116 
3 66 56 57 
3 67 66 57 
3 67 57 118 
3 65 67 118 
3 65 118 116 
3 115 56 66 
3 115 117 56 
3 113 114 115 
3 115 114 117 
3 67 115 66 
3 113 115 67 
3 64 67 65 
3 64 113 67 
3 109 110 73 
3 68 110 109 
3 54 68 74 
3 110 68 54 
3 72 70 71 
3 72 69 70 
3 74 71 54 
3 74 72 71 
3 70 107 108 
3 70 69 107 
3 109 108 107 
3 109 73 108 
3 72 68 109 
3 72 109 107 
3 74 68 72 
3 69 72 107 
3 76 77 83 
3 77 75 83 
3 119 77 76 
3 119 78 77 
3 119 120 78 
3 79 120 119 
3 80 59 60 
3 81 80 60 
3 81 60 122 
3 79 81 122 
3 79 122 120 
3 59 82 121 
3 59 80 82 
3 75 82 83 
3 121 82 75 
3 79 119 76 
3 81 79 76 
3 83 81 76 
3 83 80 81 
3 82 80 83 
3 93 84 92 
3 85 86 93 
3 86 84 93 
3 86 87 88 
3 86 85 87 
3 87 124 88 
3 89 124 87 
3 90 53 51 
3 91 90 51 
3 91 51 126 
3 89 91 126 
3 89 126 124 
3 123 53 90 
3 123 125 53 
3 84 123 92 
3 125 123 84 
3 85 91 89 
3 85 89 87 
3 92 90 91 
3 92 123 90 
3 93 92 91 
3 93 91 85 
3 96 95 94 
3 94 95 129 
3 96 30 95 
3 127 94 129 
3 96 4 30 
3 8 4 96 
3 127 129 130 
3 5 4 8 
3 3 4 5 
3 128 127 130 
3 0 3 5 
3 1 6 128 
3 1 128 130 
3 0 5 7 
3 2 0 7 
3 1 7 6 
3 2 7 1 
3 111 55 0 
3 111 0 2 
3 112 22 4 
3 20 111 2 
3 112 4 3 
3 20 2 1 
3 112 3 0 
3 55 112 0 
3 97 5 98 
3 128 6 10 
3 5 8 98 
3 10 6 99 
3 8 96 98 
3 6 7 99 
3 99 7 97 
3 7 5 97 
3 100 17 101 
3 17 15 101 
3 15 14 101 
3 101 14 26 
3 16 17 100 
3 27 9 13 
3 15 97 98 
3 14 98 11 
3 10 29 12 
3 99 17 16 
3 29 27 12 
3 12 27 13 
3 10 16 29 
3 27 11 9 
3 27 14 11 
3 99 97 17 
3 10 99 16 
3 17 97 15 
3 15 98 14 
3 100 101 26 
3 100 26 28 
3 38 43 131 
3 38 131 39 
3 47 36 131 
3 43 47 131 
3 132 32 40 
3 132 40 43 
3 132 43 46 
3 33 132 46 
3 136 257 135 
3 137 257 136 
3 137 133 257 
3 133 138 257 
3 134 257 138 
3 139 140 141 
3 139 187 140 
3 142 207 151 
3 142 143 207 
3 144 145 146 
3 147 148 145 
3 150 153 149 
3 149 153 178 
3 178 153 151 
3 150 152 153 
3 151 139 148 
3 178 151 148 
3 148 154 145 
3 139 154 148 
3 139 155 154 
3 154 156 145 
3 145 156 146 
3 154 157 156 
3 205 159 160 
3 205 206 159 
3 159 206 161 
3 206 147 161 
3 158 162 164 
3 164 162 163 
3 159 161 164 
3 161 158 164 
3 165 166 167 
3 163 168 166 
3 162 168 163 
3 144 146 168 
3 146 167 166 
3 146 166 168 
3 169 170 171 
3 170 172 173 
3 174 172 170 
3 156 157 174 
3 169 156 170 
3 170 156 174 
3 175 173 172 
3 175 176 173 
3 146 169 167 
3 146 156 169 
3 184 149 177 
3 149 178 177 
3 152 150 186 
3 186 150 179 
3 180 187 181 
3 169 181 182 
3 169 182 167 
3 182 165 167 
3 171 181 169 
3 183 160 182 
3 188 177 185 
3 188 184 177 
3 188 179 184 
3 186 179 188 
3 185 177 183 
3 187 185 183 
3 181 183 182 
3 181 187 183 
3 171 189 181 
3 190 189 171 
3 170 190 171 
3 191 192 190 
3 190 193 189 
3 192 193 190 
3 173 191 170 
3 170 191 190 
3 193 181 189 
3 193 180 181 
3 194 166 165 
3 195 165 182 
3 195 194 165 
3 195 159 194 
3 159 196 194 
3 160 195 182 
3 160 159 195 
3 196 163 194 
3 194 163 166 
3 157 154 198 
3 157 197 174 
3 157 198 197 
3 198 199 197 
3 199 200 197 
3 200 201 197 
3 155 199 198 
3 155 198 154 
3 201 172 174 
3 201 174 197 
3 144 168 202 
3 204 202 203 
3 204 144 202 
3 145 144 204 
3 202 158 203 
3 158 161 203 
3 203 161 204 
3 162 158 202 
3 162 202 168 
3 204 147 145 
3 161 147 204 
3 177 178 205 
3 178 206 205 
3 139 151 187 
3 187 151 207 
3 208 209 152 
3 186 208 152 
3 179 150 149 
3 184 179 149 
3 199 155 210 
3 199 210 200 
3 210 175 200 
3 200 175 201 
3 172 201 175 
3 141 155 139 
3 209 142 153 
3 142 151 153 
3 152 209 153 
3 173 176 191 
3 191 176 192 
3 176 211 192 
3 192 211 193 
3 211 180 193 
3 178 148 206 
3 187 180 140 
3 147 206 148 
3 207 185 187 
3 143 185 207 
3 188 143 208 
3 188 185 143 
3 208 186 188 
3 205 183 177 
3 160 183 205 
3 164 163 196 
3 159 164 196 
3 210 212 175 
3 210 155 212 
3 215 216 213 
3 216 214 213 
3 215 218 216 
3 217 218 215 
3 219 224 220 
3 222 224 219 
3 223 224 222 
3 218 217 223 
3 223 217 224 
3 223 222 221 
3 219 254 222 
3 227 254 219 
3 226 138 225 
3 225 138 227 
3 138 133 227 
3 226 134 138 
3 227 133 230 
3 226 228 134 
3 228 229 134 
3 133 137 230 
3 137 136 230 
3 228 255 229 
3 230 136 231 
3 136 232 231 
3 228 258 255 
3 135 232 136 
3 256 233 135 
3 259 233 256 
3 135 233 232 
3 258 233 259 
3 228 233 258 
3 228 235 233 
3 234 235 228 
3 236 237 234 
3 238 237 236 
3 209 208 236 
3 208 238 236 
3 143 238 208 
3 236 142 209 
3 213 214 239 
3 214 240 239 
3 180 211 241 
3 241 211 176 
3 143 240 214 
3 143 214 250 
3 140 241 240 
3 140 240 143 
3 239 142 213 
3 213 142 242 
3 212 141 239 
3 239 141 142 
3 242 243 213 
3 242 234 243 
3 245 234 244 
3 245 243 234 
3 244 226 252 
3 244 252 245 
3 246 247 249 
3 232 247 246 
3 237 247 235 
3 248 249 237 
3 237 249 247 
3 248 250 214 
3 237 250 248 
3 140 142 141 
3 143 142 140 
3 241 176 240 
3 175 239 176 
3 176 239 240 
3 175 212 239 
3 227 219 220 
3 225 227 220 
3 251 225 220 
3 251 220 252 
3 226 251 252 
3 232 246 253 
3 231 232 253 
3 231 253 221 
3 254 231 221 
3 254 221 222 
3 233 235 247 
3 237 238 250 
3 232 233 247 
3 231 254 230 
3 254 227 230 
3 251 226 225 
3 238 143 250 
3 228 226 244 
3 140 180 241 
3 234 228 244 
3 236 234 242 
3 214 216 248 
3 242 142 236 
3 248 218 249 
3 216 218 248 
3 141 212 155 
3 218 223 246 
3 218 246 249 
3 253 246 223 
3 253 223 221 
3 252 220 224 
3 224 217 245 
3 224 245 252 
3 215 213 243 
3 217 243 245 
3 217 215 243 
3 135 257 256 
3 259 256 257 
3 229 257 134 
3 229 255 257 
3 255 258 257 
3 258 259 257 
3 235 234 237 
3 260 261 271 
3 271 261 262 
3 288 279 263 
3 279 264 263 
3 261 265 262 
3 263 264 266 
3 262 267 268 
3 265 267 262 
3 264 269 266 
3 269 270 266 
3 266 270 271 
3 270 260 271 
3 264 272 269 
3 272 275 269 
3 273 274 276 
3 269 275 270 
3 276 277 278 
3 274 277 276 
3 275 260 270 
3 278 277 279 
3 277 280 279 
3 279 280 264 
3 280 272 264 
3 282 277 283 
3 283 277 281 
3 280 277 282 
3 281 277 274 
3 275 272 260 
3 272 280 260 
3 260 280 261 
3 261 280 282 
3 284 281 285 
3 283 281 284 
3 285 281 273 
3 281 274 273 
3 261 282 265 
3 265 282 267 
3 282 283 267 
3 267 283 284 
3 273 276 286 
3 276 278 286 
3 268 284 287 
3 267 284 268 
3 286 278 288 
3 278 279 288 
3 284 285 287 
3 287 285 289 
3 285 273 289 
3 289 273 286 
3 286 288 263 
3 286 263 266 
3 286 266 271 
3 287 286 271 
3 287 271 262 
3 287 289 286 
3 287 262 268 
3 300 290 291 
3 316 307 292 
3 307 293 292 
3 290 294 291 
3 292 293 295 
3 291 296 297 
3 294 296 291 
3 293 298 295 
3 298 299 295 
3 295 299 300 
3 299 290 300 
3 293 301 298 
3 303 304 302 
3 302 304 305 
3 298 301 299 
3 304 306 305 
3 306 308 307 
3 307 308 293 
3 308 301 293 
3 310 304 303 
3 308 304 310 
3 308 306 304 
3 290 301 311 
3 311 301 309 
3 309 308 310 
3 301 308 309 
3 299 301 290 
3 309 310 312 
3 312 310 313 
3 310 303 313 
3 313 303 302 
3 290 311 294 
3 294 311 296 
3 311 309 296 
3 296 309 312 
3 302 305 314 
3 305 306 314 
3 297 312 315 
3 296 312 297 
3 314 306 316 
3 306 307 316 
3 312 313 315 
3 315 313 317 
3 313 302 317 
3 317 302 314 
3 291 295 300 
3 315 316 292 
3 315 314 316 
3 315 317 314 
3 315 292 297 
3 297 292 295 
3 297 295 291 
